<?xml version="1.0" encoding="UTF-8"?><svg id="Layer_7" xmlns="http://www.w3.org/2000/svg" viewBox="0 0 255.75 136.88"><defs><style>.cls-1{fill:#fff;}</style></defs><g><path class="cls-1" d="m42.22,62.41l25.52,69.02c41.25-19.32,6.25-44.78-25.52-69.02Z"/><path class="cls-1" d="m42.22,62.41L21.26,5.7c-33.07,14.47-7.34,35.1,20.96,56.71Z"/></g><g><path class="cls-1" d="m74.49,62.41l25.52,69.02c41.25-19.32,6.25-44.78-25.52-69.02Z"/><path class="cls-1" d="m74.49,62.41L53.53,5.7c-33.07,14.47-7.34,35.1,20.96,56.71Z"/></g><g><path class="cls-1" d="m106.65,62.41l25.52,69.02c41.25-19.32,6.25-44.78-25.52-69.02Z"/><path class="cls-1" d="m106.65,62.41L85.69,5.7c-33.07,14.47-7.34,35.1,20.96,56.71Z"/></g><g><path class="cls-1" d="m139.85,62.41l25.52,69.02c41.25-19.32,6.25-44.78-25.52-69.02Z"/><path class="cls-1" d="m139.85,62.41L118.89,5.7c-33.07,14.47-7.34,35.1,20.96,56.71Z"/></g><g><path class="cls-1" d="m172.69,62.41l25.52,69.02c41.25-19.32,6.25-44.78-25.52-69.02Z"/><path class="cls-1" d="m172.69,62.41l-20.96-56.71c-33.07,14.47-7.34,35.1,20.96,56.71Z"/></g><g><path class="cls-1" d="m205.35,62.41l25.52,69.02c41.25-19.32,6.25-44.78-25.52-69.02Z"/><path class="cls-1" d="m205.35,62.41l-20.96-56.71c-33.07,14.47-7.34,35.1,20.96,56.71Z"/></g></svg>